<svg xmlns="http://www.w3.org/2000/svg" width="15" height="15" viewBox="0 0 15 15">
  <defs>
    <style>
      .cls-1 {
        fill: #fff;
        fill-rule: evenodd;
      }
    </style>
  </defs>
  <path id="Чербокс_вкл._" data-name="Чербокс вкл. " class="cls-1" d="M1.146-2.986H12.854a4.161,4.161,0,0,1,4.161,4.161v11.65a4.161,4.161,0,0,1-4.161,4.161H1.146a4.161,4.161,0,0,1-4.161-4.161V1.174A4.161,4.161,0,0,1,1.146-2.986ZM1-2H13a3,3,0,0,1,3,3V13a3,3,0,0,1-3,3H1a3,3,0,0,1-3-3V1A3,3,0,0,1,1-2ZM13.369,3.955L7.439,9.886h0L5.675,11.653l0,0,0,0L3.907,9.888h0l-3.07-3.07L2.6,5.051l3.07,3.07L11.6,2.19Z"/>
</svg>
