<svg xmlns="http://www.w3.org/2000/svg" width="150" height="100" viewBox="0 0 150 100">
  <defs>
    <style>
      .cls-1 {
        fill: #fff;
        fill-rule: evenodd;
        opacity: 0.8;
      }
    </style>
  </defs>
  <path id="Твитер" class="cls-1" d="M18.427,0.165A15.692,15.692,0,1,1,2.735,15.857,15.692,15.692,0,0,1,18.427.165Zm9.138,10.811a7.29,7.29,0,0,1-2.092.573,3.652,3.652,0,0,0,1.6-2.015,7.278,7.278,0,0,1-2.313.883,3.646,3.646,0,0,0-6.207,3.322,10.341,10.341,0,0,1-7.507-3.806A3.646,3.646,0,0,0,12.175,14.8a3.625,3.625,0,0,1-1.65-.456c0,0.015,0,.03,0,0.046a3.644,3.644,0,0,0,2.922,3.572,3.658,3.658,0,0,1-.96.128,3.616,3.616,0,0,1-.685-0.065,3.645,3.645,0,0,0,3.4,2.529,7.358,7.358,0,0,1-5.392,1.508,10.358,10.358,0,0,0,15.946-8.727q0-.237-0.011-0.471A7.406,7.406,0,0,0,27.565,10.976Z"/>
  <path id="Инста" class="cls-1" d="M52.865,0.228A15.692,15.692,0,1,1,37.173,15.919,15.692,15.692,0,0,1,52.865.228Zm6.272,23.61a1.745,1.745,0,0,0,1.745-1.745V9.782a1.745,1.745,0,0,0-1.745-1.745H46.809a1.745,1.745,0,0,0-1.745,1.745V22.093a1.745,1.745,0,0,0,1.745,1.745H59.136Zm-1.375-9.1a4.921,4.921,0,1,1-9.529,0h-1.38v6.786a0.611,0.611,0,0,0,.611.611H58.529a0.611,0.611,0,0,0,.611-0.611V14.737S58.644,14.739,57.761,14.737ZM53,13.132a2.954,2.954,0,0,1,3.066,2.838A2.954,2.954,0,0,1,53,18.808,2.838,2.838,0,0,1,53,13.132Zm3.7-3.316H58.56a0.611,0.611,0,0,1,.611.611v1.864a0.611,0.611,0,0,1-.611.611H56.7a0.611,0.611,0,0,1-.612-0.611V10.427A0.611,0.611,0,0,1,56.7,9.816Z"/>
  <path id="ФБ" class="cls-1" d="M86.865,0.228A15.692,15.692,0,1,1,71.173,15.919,15.691,15.691,0,0,1,86.865.228Zm0.773,24.989V15.926h2.742l0.285-3.089H87.638l0.005-1.856c0-.894.084-1.256,1.367-1.256h1.764V6.3H87.982c-3.294,0-4.082,1.546-4.082,4.342v2.2H82.011v3.089H83.9v9.291h3.739Z"/>
  <path id="ВК" class="cls-1" d="M121.865,0.228a15.692,15.692,0,1,1-15.692,15.692A15.691,15.691,0,0,1,121.865.228Zm5.967,18.252a3.118,3.118,0,0,0-.757-2.2,3.7,3.7,0,0,0-2.016-1.082V15.123a2.94,2.94,0,0,0,1.371-1.144,3.2,3.2,0,0,0,.5-1.771,3.115,3.115,0,0,0-.362-1.518,2.636,2.636,0,0,0-1.091-1.05,4.3,4.3,0,0,0-1.446-.476,16.36,16.36,0,0,0-2.269-.115h-4.8v13.6H122.4a8.823,8.823,0,0,0,2.331-.256,4.792,4.792,0,0,0,1.686-.857,3.641,3.641,0,0,0,1.032-1.269,3.94,3.94,0,0,0,.383-1.783h0Zm-4.372-5.586a1.543,1.543,0,0,0-.169-0.677,1.008,1.008,0,0,0-.527-0.5,2.107,2.107,0,0,0-.8-0.162q-0.462-.013-1.374-0.013h-0.237v2.877h0.43c0.583,0,.994-0.006,1.228-0.018a2,2,0,0,0,.727-0.19,1.105,1.105,0,0,0,.563-0.53,1.89,1.89,0,0,0,.157-0.786h0Zm0.856,5.523a1.647,1.647,0,0,0-.255-0.985,1.535,1.535,0,0,0-.767-0.539,2.537,2.537,0,0,0-.853-0.134c-0.362-.01-0.849-0.013-1.456-0.013h-0.63v3.4h0.184q1.332,0,1.842-.019a2.878,2.878,0,0,0,1.041-.245,1.363,1.363,0,0,0,.68-0.589A1.789,1.789,0,0,0,124.316,18.417Z"/>
</svg>
